<?xml version="1.0" encoding="UTF-8"?>
<svg xmlns="http://www.w3.org/2000/svg"  xmlns:xlink="http://www.w3.org/1999/xlink" width="0" height="0">

<g id="three">
  <path d="M27.6695 6.98776L6.33046 6.98269L6.6751 11.1348L23.0687 11.1373L22.6554 15.4377H11.9043L12.293 19.5113H22.3017L21.7096 25.0901L16.9987 26.3634L12.2126 25.0812L11.9082 21.74H7.68181L8.15083 27.8434L16.9987 30.5396L25.6976 28.117L27.6682 6.98903L27.6695 6.98776ZM0 0H34L30.9073 34.1418L16.9624 38L3.09527 34.1393L0 0Z" fill="#7572D5"/>
</g>
<g id="react">
  <path d="M42 19.7112C42 16.9898 39.1233 14.4628 34.3288 12.7133L33.4658 12.4217V12.033C34.5205 6.68738 33.7534 2.70247 31.3562 1.24458C28.9589 -0.213309 25.411 1.14739 21.5753 4.54913L21 5.13229L20.8082 4.93791H20.6164C16.6849 1.24458 12.8493 -0.018924 10.4521 1.34177C8.05479 2.70247 7.38356 6.49299 8.34247 11.4498C8.44334 11.7652 8.5077 12.0913 8.53425 12.4217L7.47945 12.8105C2.78082 14.4628 0 16.9898 0 19.7112C0 22.4326 3.06849 25.154 7.86301 26.9035L8.53425 27.0978C8.41578 27.4419 8.35107 27.8026 8.34247 28.167C7.38356 33.0266 8.24657 36.7199 10.4521 38.0806C12.6575 39.4413 16.6849 38.1778 20.5205 34.7761L21.0959 34.2901L21.863 35.0677C24.5479 37.4003 27.2329 38.6638 29.3425 38.6638C30.0866 38.681 30.8196 38.4784 31.4521 38.0806C33.8493 36.7199 34.7123 32.735 33.6575 27.681V27.4866C33.6161 27.3267 33.5841 27.1644 33.5616 27.0007H33.8493C38.9315 25.154 42 22.5298 42 19.7112ZM39.2192 19.7112C39.2192 20.8775 37.1096 22.9186 32.9863 24.2793H32.7945C32.2918 22.7158 31.6831 21.1895 30.9726 19.7112C31.6438 18.1561 32.2192 16.601 32.6986 15.1431L33.4658 15.3375C37.3014 16.6982 39.2192 18.5449 39.2192 19.7112ZM23.6849 32.9294L22.9178 32.3463C24.0158 31.1132 25.0404 29.815 25.9863 28.4585L30.8767 27.681C30.9726 27.8754 30.9726 28.0698 31.0685 28.167C31.4102 29.9274 31.4749 31.7316 31.2603 33.5126C31.1255 34.3643 30.7218 35.1487 30.1096 35.748C29.1507 36.3312 26.5616 35.5536 23.6849 32.9294ZM22.4384 28.6529L21.0959 30.4024L19.5616 28.6529H22.4384ZM9.30137 15.046C9.78333 16.6484 10.3926 18.2086 11.1233 19.7112C10.392 21.2471 9.7828 22.8396 9.30137 24.4736L8.72603 24.2793C7.04685 23.7421 5.48454 22.8843 4.12329 21.7522C3.77081 21.5265 3.46913 21.2281 3.23785 20.8765C3.00656 20.5248 2.85085 20.1278 2.78082 19.7112C2.78082 18.5449 4.69863 16.6982 8.34247 15.4347L9.30137 15.046ZM19.5616 10.7695L21 9.11719L22.4384 10.7695H19.5616ZM30.1096 3.6744C31.1644 4.25756 31.7397 7.17334 30.8767 11.4498C30.8811 11.5025 30.8749 11.5555 30.8584 11.6056C30.8419 11.6558 30.8155 11.702 30.7808 11.7414L25.9863 10.9639C25.0404 9.60744 24.0158 8.30924 22.9178 7.07615L23.4931 6.59018C26.5616 3.86879 29.0548 3.09124 30.1096 3.6744ZM14.0959 13.9768L13.3288 15.2403L12.6575 16.5038C12.3699 15.8235 12.1781 15.1431 11.8904 14.3656L14.0959 13.9768ZM11.8904 25.0568C12.1781 24.3765 12.3699 23.6961 12.6575 22.9186L13.3288 24.1821L14.0959 25.4456L11.8904 25.0568ZM27.9041 19.7112C27.4162 20.7768 26.872 21.815 26.274 22.8214C25.6986 23.8905 25.0274 24.8624 24.4521 25.8343H17.5479C16.8767 24.7652 16.2055 23.7933 15.726 22.8214C15.1233 21.8177 14.579 20.7793 14.0959 19.7112C14.5612 18.6343 15.1061 17.5946 15.726 16.601C16.2769 15.5941 16.8853 14.6205 17.5479 13.6853C19.8453 13.491 22.1547 13.491 24.4521 13.6853C25.1233 14.6572 25.6986 15.6291 26.274 16.601C26.8939 17.5946 27.4388 18.6343 27.9041 19.7112ZM28.6712 15.2403L27.9041 13.9768L30.1096 14.4628C29.8961 15.1587 29.6399 15.8404 29.3425 16.5038L28.6712 15.2403ZM27.9041 25.4456L28.6712 24.1821L29.3425 22.8214L30.2055 25.0568L27.9041 25.4456ZM18.9863 6.97895H19.0822L16.0137 10.8667L11.2192 11.6442C11.1233 11.3526 11.1233 11.1582 11.0274 10.8667C10.2603 6.88176 10.8356 4.16036 11.7945 3.6744C12.0491 3.50492 12.3561 3.43577 12.6575 3.48001C14 3.48001 16.3014 4.45194 18.8904 6.78457L18.9863 6.97895ZM11.0274 28.6529C11.0449 28.3529 11.1096 28.0575 11.2192 27.7782L16.1096 28.4585C17.0315 29.8331 18.0574 31.1329 19.1781 32.3463L18.9863 32.5406L18.7945 32.735C17.4872 33.9625 15.9564 34.9198 14.2877 35.5536C13.9216 35.748 13.5206 35.8654 13.1086 35.8988C12.6967 35.9322 12.2823 35.8809 11.8904 35.748C10.8356 35.1648 10.2603 32.5406 11.0274 28.6529Z" fill="#7572D5"/>
  <path d="M21.0001 15.4347C20.1618 15.4154 19.3369 15.6497 18.6305 16.1077C17.9242 16.5657 17.3685 17.2267 17.0344 18.0062C16.7003 18.7857 16.603 19.6485 16.7548 20.4843C16.9066 21.3202 17.3007 22.0912 17.8867 22.6991C18.4728 23.3069 19.2243 23.724 20.0452 23.897C20.8662 24.0701 21.7194 23.9912 22.4959 23.6706C23.2725 23.35 23.9372 22.8021 24.4052 22.0969C24.8731 21.3917 25.1232 20.5611 25.1234 19.7112C25.1237 18.5937 24.6924 17.5204 23.9217 16.7211C23.1511 15.9219 22.1024 15.4601 21.0001 15.4347Z" fill="#7572D5"/>
</g>


<g id="">
  <g clip-path="url(#clip0_20_1854)">
  <path d="M47.8125 25C47.8125 22.0833 44.6875 19.375 39.4792 17.5L38.5417 17.1875V16.7708C39.6875 11.0416 38.8542 6.7708 36.25 5.2083C33.6458 3.6458 29.7917 5.10414 25.625 8.74997L25 9.37497L24.7917 9.16664H24.5833C20.3125 5.2083 16.1458 3.85414 13.5417 5.31247C10.9375 6.7708 10.2083 10.8333 11.25 16.1458C11.3596 16.4838 11.4295 16.8333 11.4583 17.1875L10.3125 17.6041C5.20833 19.375 2.1875 22.0833 2.1875 25C2.1875 27.9166 5.52083 30.8333 10.7292 32.7083L11.4583 32.9166C11.3296 33.2854 11.2593 33.672 11.25 34.0625C10.2083 39.2708 11.1458 43.2291 13.5417 44.6875C15.9375 46.1458 20.3125 44.7916 24.4792 41.1458L25.1042 40.625L25.9375 41.4583C28.8542 43.9583 31.7708 45.3125 34.0625 45.3125C34.8708 45.3309 35.6671 45.1137 36.3542 44.6875C38.9583 43.2291 39.8958 38.9583 38.75 33.5416V33.3333C38.705 33.1619 38.6702 32.988 38.6458 32.8125H38.9583C44.4792 30.8333 47.8125 28.0208 47.8125 25ZM44.7917 25C44.7917 26.25 42.5 28.4375 38.0208 29.8958H37.8125C37.2664 28.2202 36.6051 26.5843 35.8333 25C36.5625 23.3333 37.1875 21.6666 37.7083 20.1041L38.5417 20.3125C42.7083 21.7708 44.7917 23.75 44.7917 25ZM27.9167 39.1666L27.0833 38.5416C28.2761 37.2201 29.3891 35.8287 30.4167 34.375L35.7292 33.5416C35.8333 33.75 35.8333 33.9583 35.9375 34.0625C36.3087 35.9492 36.379 37.8829 36.1458 39.7916C35.9995 40.7045 35.5608 41.5452 34.8958 42.1875C33.8542 42.8125 31.0417 41.9791 27.9167 39.1666ZM26.5625 34.5833L25.1042 36.4583L23.4375 34.5833H26.5625ZM12.2917 20C12.8152 21.7174 13.4771 23.3895 14.2708 25C13.4765 26.646 12.8146 28.3528 12.2917 30.1041L11.6667 29.8958C9.84256 29.3201 8.1454 28.4008 6.66667 27.1875C6.28377 26.9455 5.95605 26.6257 5.7048 26.2488C5.45356 25.872 5.2844 25.4465 5.20833 25C5.20833 23.75 7.29167 21.7708 11.25 20.4166L12.2917 20ZM23.4375 15.4166L25 13.6458L26.5625 15.4166H23.4375ZM34.8958 7.81247C36.0417 8.43747 36.6667 11.5625 35.7292 16.1458C35.734 16.2022 35.7272 16.2591 35.7093 16.3128C35.6914 16.3665 35.6627 16.416 35.625 16.4583L30.4167 15.625C29.3891 14.1712 28.2761 12.7799 27.0833 11.4583L27.7083 10.9375C31.0417 8.0208 33.75 7.18747 34.8958 7.81247ZM17.5 18.8541L16.6667 20.2083L15.9375 21.5625C15.625 20.8333 15.4167 20.1041 15.1042 19.2708L17.5 18.8541ZM15.1042 30.7291C15.4167 30 15.625 29.2708 15.9375 28.4375L16.6667 29.7916L17.5 31.1458L15.1042 30.7291ZM32.5 25C31.9699 26.142 31.3788 27.2548 30.7292 28.3333C30.1042 29.4791 29.375 30.5208 28.75 31.5625H21.25C20.5208 30.4166 19.7917 29.375 19.2708 28.3333C18.6161 27.2577 18.0248 26.1447 17.5 25C18.0054 23.8458 18.5974 22.7315 19.2708 21.6666C19.8693 20.5874 20.5301 19.544 21.25 18.5416C23.7457 18.3334 26.2543 18.3334 28.75 18.5416C29.4792 19.5833 30.1042 20.625 30.7292 21.6666C31.4026 22.7315 31.9946 23.8458 32.5 25ZM33.3333 20.2083L32.5 18.8541L34.8958 19.375C34.6639 20.1208 34.3856 20.8514 34.0625 21.5625L33.3333 20.2083ZM32.5 31.1458L33.3333 29.7916L34.0625 28.3333L35 30.7291L32.5 31.1458ZM22.8125 11.3541H22.9167L19.5833 15.5208L14.375 16.3541C14.2708 16.0416 14.2708 15.8333 14.1667 15.5208C13.3333 11.25 13.9583 8.3333 15 7.81247C15.2766 7.63082 15.61 7.55672 15.9375 7.60414C17.3958 7.60414 19.8958 8.6458 22.7083 11.1458L22.8125 11.3541ZM14.1667 34.5833C14.1857 34.2617 14.256 33.9452 14.375 33.6458L19.6875 34.375C20.689 35.8481 21.8034 37.2412 23.0208 38.5416L22.8125 38.75L22.6042 38.9583C21.184 40.2738 19.5211 41.2999 17.7083 41.9791C17.3107 42.1874 16.875 42.3133 16.4275 42.3491C15.98 42.3849 15.5299 42.3299 15.1042 42.1875C13.9583 41.5625 13.3333 38.75 14.1667 34.5833Z" fill="#7572D5"/>
  <path d="M25 20.4166C24.0894 20.3959 23.1932 20.647 22.4259 21.1379C21.6586 21.6287 21.0549 22.3371 20.692 23.1726C20.3291 24.008 20.2233 24.9327 20.3882 25.8285C20.5532 26.7243 20.9812 27.5507 21.6179 28.2022C22.2545 28.8536 23.0709 29.3006 23.9627 29.4861C24.8545 29.6715 25.7813 29.587 26.6249 29.2434C27.4685 28.8998 28.1905 28.3126 28.6989 27.5568C29.2073 26.801 29.4789 25.9108 29.4792 24.9999C29.4795 23.8022 29.0109 22.6519 28.1738 21.7953C27.3366 20.9387 26.1974 20.4438 25 20.4166Z" fill="#7572D5"/>
  </g>
  <defs>
  <clipPath id="clip0_20_1854">
  <rect width="50" height="50" fill="white"/>
  </clipPath>
  </defs>
</g>

<g id="css">
  <path d="M38.0508 10.8437L12.946 10.8377L13.3515 15.7547L32.6381 15.7577L32.1519 20.8502H19.5035L19.9608 25.6742H31.7358L31.0392 32.2806L25.4969 33.7886L19.8663 32.2701L19.508 28.3134H14.5359L15.0877 35.5411L25.4969 38.7341L35.7309 35.8652L38.0493 10.8452L38.0508 10.8437ZM5.49844 2.56873H45.4984L41.86 42.9999L25.4542 47.5687L9.13993 42.9968L5.49844 2.56873Z" fill="#7572D5"/>
</g>

<g id="ts">
  <path d="M0 19V38H39V0H0V19ZM31.4291 17.4863C32.4204 17.727 33.1744 18.1561 33.8682 18.8559C34.2274 19.2296 34.7604 19.9104 34.8026 20.0751C34.8156 20.1226 33.1191 21.2309 32.0921 21.8532C32.0548 21.8769 31.9052 21.7202 31.7395 21.4795C31.2358 20.767 30.7109 20.4598 29.9065 20.406C28.7235 20.3268 27.963 20.9301 27.9695 21.9371C27.9587 22.1847 28.0159 22.4307 28.1352 22.6496C28.3952 23.1737 28.8795 23.4888 30.394 24.1268C33.1874 25.2985 34.3817 26.0696 35.1244 27.1668C35.9531 28.3908 36.14 30.3462 35.5761 31.7997C34.9586 33.3798 33.423 34.4533 31.2618 34.808C30.5939 34.9236 29.0095 34.9062 28.2913 34.7795C26.7248 34.5072 25.2395 33.7535 24.323 32.7639C23.9639 32.3792 23.2635 31.3706 23.3074 31.2993C23.3253 31.274 23.4861 31.1774 23.6649 31.0761C23.8404 30.9795 24.4953 30.6106 25.1144 30.2607L26.2356 29.6273L26.4713 29.9662C26.7995 30.4538 27.5161 31.1236 27.95 31.3468C29.1948 31.9865 30.9026 31.8963 31.7444 31.16C31.9136 31.0211 32.0476 30.8459 32.1359 30.6481C32.2241 30.4503 32.2642 30.2354 32.253 30.02C32.253 29.5798 32.1961 29.3867 31.9605 29.0542C31.6582 28.633 31.0391 28.2783 29.2809 27.5342C27.2691 26.6903 26.403 26.1662 25.61 25.3333C25.1151 24.7837 24.7495 24.1352 24.5391 23.4333C24.3913 22.8966 24.3539 21.5508 24.4709 21.0093C24.8853 19.114 26.3526 17.7951 28.47 17.4024C29.1574 17.2758 30.7547 17.3232 31.4291 17.4863ZM22.2739 19.0728L22.2869 20.6293H17.2087V34.6829H13.6175V20.6293H8.54425V19.1029C8.54425 18.2574 8.56213 17.5513 8.5865 17.5354C8.606 17.5101 11.6951 17.4974 15.4391 17.5038L22.256 17.5228L22.2739 19.0728Z" fill="#7572D5"/>
</g>

<g id='vector'>
  <path d="M31.4226 0L31.1487 1.41829C30.725 4.10615 30.8784 4.87514 32.0398 5.87266L33.161 6.794L31.9996 11.9376C31.3057 15.0063 30.4548 17.5781 29.9143 18.4233C29.4505 19.1523 28.91 20.226 28.7931 20.8028C28.5995 21.492 27.9421 22.1848 26.9378 22.7978C26.0504 23.2984 24.3083 24.6405 23.0739 25.7178C22.0878 26.5993 21.4086 27.1397 21.0397 27.3719L19.8345 28.3186C19.4474 28.9353 19.2283 29.4322 19.1443 29.8095C19.0603 30.1976 19.1077 30.4551 19.2319 30.6438C19.3524 30.8251 19.5606 30.9521 19.8455 31.0319C20.1827 31.1104 20.5298 31.1385 20.8754 31.1153C21.6571 31.0623 22.4309 30.9261 23.1835 30.709C23.4391 30.6401 23.64 30.5748 23.8153 30.5168C24.0855 30.1867 24.71 29.5628 25.8166 28.4782C28.7529 25.6018 29.8741 24.0275 28.7164 24.4519C28.2891 24.6042 28.4827 24.2197 29.2167 23.4507C30.7652 21.9527 31.6527 19.6892 33.5079 12.5905C34.9761 6.98625 34.9761 6.90645 36.0571 6.90645C36.5647 6.90645 38 6.99351 38 6.99351V0H34.7058H31.4226ZM18.4138 11.9884C17.3474 11.9811 15.0539 13.5953 8.18799 19.1632C7.89217 19.8633 7.8666 20.3457 8.00173 20.6577C8.08938 20.8717 8.25007 21.0204 8.47285 21.1292C8.69198 21.2381 8.97684 21.3034 9.29092 21.3288C9.91543 21.3832 10.6531 21.2852 11.2484 21.1691L11.6502 21.0785C11.7877 20.8953 11.9682 20.7484 12.1761 20.6504C12.5997 20.4183 14.3783 18.8077 16.1569 17.0811C19.2867 13.9326 20.0208 12.5107 18.7462 12.05C18.6416 12.0087 18.5264 11.9878 18.4138 11.9884ZM26.4338 14.1756C25.4952 14.201 23.8043 15.282 20.9082 17.5781C19.4547 18.7497 18.5344 19.3809 18.0413 19.5115L16.1276 21.0132C15.4082 22.319 15.3023 23.1279 15.4922 23.5741C15.5397 23.6841 15.6087 23.7837 15.6952 23.8672C15.7817 23.9506 15.884 24.0162 15.9962 24.0601C16.2752 24.1696 16.5727 24.225 16.8727 24.2234C17.5895 24.2158 18.302 24.1121 18.9909 23.915C19.3499 23.8194 19.7045 23.708 20.0536 23.5813L20.1595 23.5378L20.3531 23.4362C20.7183 22.9683 21.5583 22.0869 22.6101 21.0712C25.9335 17.8864 27.6317 15.6229 27.2848 14.7778C27.1277 14.3679 26.8575 14.1611 26.4338 14.1756ZM17.5812 18.0932C17.3109 18.1222 16.7047 18.5865 15.6127 19.5368C14.035 20.9225 12.3149 21.7205 11.7196 21.365C11.5812 21.3961 11.4424 21.4251 11.3032 21.4521C10.697 21.5718 9.94099 21.6697 9.26536 21.6153C8.94702 21.5962 8.63499 21.5187 8.34503 21.3868C8.07153 21.2626 7.85327 21.0432 7.73148 20.7701C7.59635 20.4437 7.59635 20.0374 7.74974 19.5187L5.37588 21.4557L0.00365287 25.8702V33.0269L17.6067 19.2539C17.6033 19.1031 17.623 18.9527 17.6652 18.8077C17.8003 18.3217 17.793 18.075 17.5812 18.0968V18.0932ZM25.1556 20.411C24.889 20.411 24.4434 20.7847 23.7313 21.5355C22.7635 22.562 21.2406 23.5559 20.4334 23.7591L20.3093 23.8244C20.1768 23.8787 20.0428 23.9295 19.9075 23.9767C19.6884 24.0493 19.4036 24.1363 19.0749 24.2234C18.4175 24.4011 17.5994 24.5643 16.869 24.5462C16.5247 24.5458 16.1836 24.4793 15.8647 24.3503C15.5641 24.2273 15.3232 23.9932 15.1927 23.6974C14.9809 23.1932 15.0649 22.4859 15.5287 21.4811L0 33.6291V38H6.82211L21.2917 26.7117C21.6679 26.2982 22.2339 25.7323 22.9972 25.025C25.0424 23.1424 25.5062 22.4931 25.5062 21.5319C25.5062 20.7846 25.4222 20.4074 25.1556 20.4074V20.411ZM28.5995 27.4843L27.3615 28.7104C26.6676 29.3633 25.4295 30.1686 24.5822 30.5132L24.4142 30.5857L24.4033 30.6039L24.3667 30.6401C24.3339 30.6655 24.3193 30.6691 24.2937 30.68C23.9555 30.8072 23.6119 30.9197 23.2638 31.0174C22.49 31.2411 21.6941 31.3809 20.89 31.4345C20.5098 31.4587 20.1281 31.4257 19.7578 31.3366C19.4365 31.2663 19.1528 31.0802 18.9617 30.8142C18.7864 30.5458 18.7352 30.1867 18.8338 29.7442C18.9123 29.4291 19.0288 29.1246 19.1808 28.8373L7.50505 38H23.0337L24.889 35.8889C27.4382 32.9362 28.5995 30.8251 28.5995 29.0187V27.4843Z" fill="#7572D5"/>
</g>

<g id="code">
  <path fill-rule="evenodd" clip-rule="evenodd" d="M18.3125 42.0645L27.2623 6.6875L31.4375 7.87241L22.4878 43.3125L18.3125 42.0645Z" fill="#7572D5"/>
  <path fill-rule="evenodd" clip-rule="evenodd" d="M13.5025 12.6875L16.5625 15.9278L7.99501 25.0001L16.5625 34.0721L13.5025 37.3125L1.875 25.0001L13.5025 12.6875Z" fill="#7572D5"/>
  <path fill-rule="evenodd" clip-rule="evenodd" d="M36.4976 12.6875L33.4375 15.9278L42.0051 25.0001L33.4375 34.0721L36.4976 37.3125L48.125 25.0001L36.4976 12.6875Z" fill="#7572D5"/>
</g>
<g iconId="ts">
  <path d="M5 25V45H45V5H5V25ZM37.235 23.4067C38.2517 23.66 39.025 24.1117 39.7367 24.8483C40.105 25.2417 40.6517 25.9583 40.695 26.1317C40.7083 26.1817 38.9683 27.3483 37.915 28.0033C37.8767 28.0283 37.7233 27.8633 37.5533 27.61C37.0367 26.86 36.4983 26.5367 35.6733 26.48C34.46 26.3967 33.68 27.0317 33.6867 28.0917C33.6756 28.3523 33.7343 28.6112 33.8567 28.8417C34.1233 29.3933 34.62 29.725 36.1733 30.3967C39.0383 31.63 40.2633 32.4417 41.025 33.5967C41.875 34.885 42.0667 36.9433 41.4883 38.4733C40.855 40.1367 39.28 41.2667 37.0633 41.64C36.3783 41.7617 34.7533 41.7433 34.0167 41.61C32.41 41.3233 30.8867 40.53 29.9467 39.4883C29.5783 39.0833 28.86 38.0217 28.905 37.9467C28.9233 37.92 29.0883 37.8183 29.2717 37.7117C29.4517 37.61 30.1233 37.2217 30.7583 36.8533L31.9083 36.1867L32.15 36.5433C32.4867 37.0567 33.2217 37.7617 33.6667 37.9967C34.9433 38.67 36.695 38.575 37.5583 37.8C37.7319 37.6538 37.8694 37.4693 37.9599 37.2612C38.0504 37.053 38.0915 36.8267 38.08 36.6C38.08 36.1367 38.0217 35.9333 37.78 35.5833C37.47 35.14 36.835 34.7667 35.0317 33.9833C32.9683 33.095 32.08 32.5433 31.2667 31.6667C30.759 31.0881 30.3841 30.4055 30.1683 29.6667C30.0167 29.1017 29.9783 27.685 30.0983 27.115C30.5233 25.12 32.0283 23.7317 34.2 23.3183C34.905 23.185 36.5433 23.235 37.235 23.4067ZM27.845 25.0767L27.8583 26.715H22.65V41.5083H18.9667V26.715H13.7633V25.1083C13.7633 24.2183 13.7817 23.475 13.8067 23.4583C13.8267 23.4317 16.995 23.4183 20.835 23.425L27.8267 23.445L27.845 25.0767Z" fill="#7572D5"/>
</g>
<g iconId="styledComponent">
  <path d="M31.4226 0L31.1487 1.41829C30.725 4.10615 30.8784 4.87514 32.0398 5.87266L33.161 6.794L31.9996 11.9376C31.3057 15.0063 30.4548 17.5781 29.9143 18.4233C29.4505 19.1523 28.91 20.226 28.7931 20.8028C28.5995 21.492 27.9421 22.1848 26.9378 22.7978C26.0504 23.2984 24.3083 24.6405 23.0739 25.7178C22.0878 26.5993 21.4086 27.1397 21.0397 27.3719L19.8345 28.3186C19.4474 28.9353 19.2283 29.4322 19.1443 29.8095C19.0603 30.1976 19.1077 30.4551 19.2319 30.6438C19.3524 30.8251 19.5606 30.9521 19.8455 31.0319C20.1827 31.1104 20.5298 31.1385 20.8754 31.1153C21.6571 31.0623 22.4309 30.9261 23.1835 30.709C23.4391 30.6401 23.64 30.5748 23.8153 30.5168C24.0855 30.1867 24.71 29.5628 25.8166 28.4782C28.7529 25.6018 29.8741 24.0275 28.7164 24.4519C28.2891 24.6042 28.4827 24.2197 29.2167 23.4507C30.7652 21.9527 31.6527 19.6892 33.5079 12.5905C34.9761 6.98625 34.9761 6.90645 36.0571 6.90645C36.5647 6.90645 38 6.99351 38 6.99351V0H34.7058H31.4226ZM18.4138 11.9884C17.3474 11.9811 15.0539 13.5953 8.18799 19.1632C7.89217 19.8633 7.8666 20.3457 8.00173 20.6577C8.08938 20.8717 8.25007 21.0204 8.47285 21.1292C8.69198 21.2381 8.97684 21.3034 9.29092 21.3288C9.91543 21.3832 10.6531 21.2852 11.2484 21.1691L11.6502 21.0785C11.7877 20.8953 11.9682 20.7484 12.1761 20.6504C12.5997 20.4183 14.3783 18.8077 16.1569 17.0811C19.2867 13.9326 20.0208 12.5107 18.7462 12.05C18.6416 12.0087 18.5264 11.9878 18.4138 11.9884ZM26.4338 14.1756C25.4952 14.201 23.8043 15.282 20.9082 17.5781C19.4547 18.7497 18.5344 19.3809 18.0413 19.5115L16.1276 21.0132C15.4082 22.319 15.3023 23.1279 15.4922 23.5741C15.5397 23.6841 15.6087 23.7837 15.6952 23.8672C15.7817 23.9506 15.884 24.0162 15.9962 24.0601C16.2752 24.1696 16.5727 24.225 16.8727 24.2234C17.5895 24.2158 18.302 24.1121 18.9909 23.915C19.3499 23.8194 19.7045 23.708 20.0536 23.5813L20.1595 23.5378L20.3531 23.4362C20.7183 22.9683 21.5583 22.0869 22.6101 21.0712C25.9335 17.8864 27.6317 15.6229 27.2848 14.7778C27.1277 14.3679 26.8575 14.1611 26.4338 14.1756ZM17.5812 18.0932C17.3109 18.1222 16.7047 18.5865 15.6127 19.5368C14.035 20.9225 12.3149 21.7205 11.7196 21.365C11.5812 21.3961 11.4424 21.4251 11.3032 21.4521C10.697 21.5718 9.94099 21.6697 9.26536 21.6153C8.94702 21.5962 8.63499 21.5187 8.34503 21.3868C8.07153 21.2626 7.85327 21.0432 7.73148 20.7701C7.59635 20.4437 7.59635 20.0374 7.74974 19.5187L5.37588 21.4557L0.00365287 25.8702V33.0269L17.6067 19.2539C17.6033 19.1031 17.623 18.9527 17.6652 18.8077C17.8003 18.3217 17.793 18.075 17.5812 18.0968V18.0932ZM25.1556 20.411C24.889 20.411 24.4434 20.7847 23.7313 21.5355C22.7635 22.562 21.2406 23.5559 20.4334 23.7591L20.3093 23.8244C20.1768 23.8787 20.0428 23.9295 19.9075 23.9767C19.6884 24.0493 19.4036 24.1363 19.0749 24.2234C18.4175 24.4011 17.5994 24.5643 16.869 24.5462C16.5247 24.5458 16.1836 24.4793 15.8647 24.3503C15.5641 24.2273 15.3232 23.9932 15.1927 23.6974C14.9809 23.1932 15.0649 22.4859 15.5287 21.4811L0 33.6291V38H6.82211L21.2917 26.7117C21.6679 26.2982 22.2339 25.7323 22.9972 25.025C25.0424 23.1424 25.5062 22.4931 25.5062 21.5319C25.5062 20.7846 25.4222 20.4074 25.1556 20.4074V20.411ZM28.5995 27.4843L27.3615 28.7104C26.6676 29.3633 25.4295 30.1686 24.5822 30.5132L24.4142 30.5857L24.4033 30.6039L24.3667 30.6401C24.3339 30.6655 24.3193 30.6691 24.2937 30.68C23.9555 30.8072 23.6119 30.9197 23.2638 31.0174C22.49 31.2411 21.6941 31.3809 20.89 31.4345C20.5098 31.4587 20.1281 31.4257 19.7578 31.3366C19.4365 31.2663 19.1528 31.0802 18.9617 30.8142C18.7864 30.5458 18.7352 30.1867 18.8338 29.7442C18.9123 29.4291 19.0288 29.1246 19.1808 28.8373L7.50505 38H23.0337L24.889 35.8889C27.4382 32.9362 28.5995 30.8251 28.5995 29.0187V27.4843Z" fill="#7572D5"/>
</g>
<g id="webDesign">
    <path d="M17.7083 4.16663C14.2565 4.16663 11.4583 6.96486 11.4583 10.4166C11.4583 13.8684 14.2565 16.6666 17.7083 16.6666H32.2916C35.7435 16.6666 38.5416 13.8684 38.5416 10.4166C38.5416 6.96486 35.7435 4.16663 32.2916 4.16663H17.7083Z" fill="#7572D5"/>
  <path d="M32.2917 18.75C28.8398 18.75 26.0417 21.5481 26.0417 25C26.0417 28.4519 28.8398 31.25 32.2917 31.25C35.7436 31.25 38.5417 28.4519 38.5417 25C38.5417 21.5481 35.7436 18.75 32.2917 18.75Z" fill="#7572D5"/>
  <path d="M11.4583 25C11.4583 21.5481 14.2565 18.75 17.7083 18.75H23.9583V31.25H17.7083C14.2565 31.25 11.4583 28.4519 11.4583 25Z" fill="#7572D5"/>
  <path d="M17.7083 33.3334C14.2565 33.3334 11.4583 36.1315 11.4583 39.5834C11.4583 43.0352 14.2565 45.8334 17.7083 45.8334C21.1602 45.8334 23.9583 43.0352 23.9583 39.5834V33.3334H17.7083Z" fill="#7572D5"/>
</g>

<g id="instagram">
   <path d="M15.6516 2.09998H5.34844C3.55687 2.09998 2.1 3.55628 2.1 5.34715V8.77799V15.6528C2.1 17.4437 3.55687 18.9 5.34844 18.9H15.6516C17.4431 18.9 18.9 17.4437 18.9 15.6528V8.77143V5.34058C18.8934 3.55628 17.4366 2.09998 15.6516 2.09998ZM16.5834 4.03516H16.9575V4.40251V6.88217L14.1159 6.88873L14.1094 4.04172L16.5834 4.03516ZM8.09812 8.77143C8.63625 8.03016 9.50906 7.53816 10.4934 7.53816C11.4778 7.53816 12.3506 8.0236 12.8887 8.77143C13.2431 9.25687 13.4466 9.85382 13.4466 10.4967C13.4466 12.1236 12.1209 13.4552 10.4869 13.4552C8.85281 13.4552 7.54031 12.1236 7.54031 10.4967C7.54031 9.85382 7.75031 9.25687 8.09812 8.77143ZM17.2594 15.6462C17.2594 16.5318 16.5375 17.2534 15.6516 17.2534H5.34844C4.4625 17.2534 3.74062 16.5318 3.74062 15.6462V8.77143H6.2475C6.03094 9.30279 5.90625 9.88662 5.90625 10.4967C5.90625 13.0288 7.96687 15.0887 10.5 15.0887C13.0331 15.0887 15.0937 13.0288 15.0937 10.4967C15.0937 9.88662 14.9691 9.30279 14.7525 8.77143H17.2594V15.6462Z" fill="#7572D5"/>
</g>
<g id="telegram">
  <path d="M18.9057 4.76449L16.3705 16.7208C16.1791 17.5644 15.6804 17.7745 14.9717 17.3772L11.1085 14.5305L9.24472 16.3235C9.0383 16.5299 8.86608 16.7022 8.46824 16.7022L8.74607 12.7681L15.9054 6.29885C16.2169 6.02162 15.8376 5.86741 15.4218 6.14524L6.57084 11.7186L2.76043 10.5257C1.93174 10.2671 1.91674 9.69701 2.93325 9.29917L17.837 3.55716C18.5271 3.29854 19.1308 3.71018 18.9057 4.76449Z" fill="#7572D5"/>
</g>
<g id="vk">
  <path d="M18.1696 13.9941C17.8038 13.5391 17.3881 13.1314 16.9861 12.737C16.8432 12.5968 16.6954 12.4518 16.5529 12.3076C16.1439 11.8932 16.129 11.7375 16.4529 11.2668C16.6769 10.9424 16.9145 10.6175 17.1442 10.3033C17.3526 10.0183 17.568 9.72351 17.7746 9.42777L17.817 9.36697C18.2117 8.80103 18.6199 8.21583 18.8372 7.50988C18.8936 7.32363 18.9528 7.04955 18.8174 6.82036C18.682 6.59137 18.4195 6.52151 18.2337 6.48888C18.1418 6.47273 18.0506 6.47053 17.9659 6.47053L15.3809 6.46861L15.3595 6.46842C14.9687 6.46842 14.7053 6.65927 14.5544 7.05194C14.4103 7.42713 14.252 7.82665 14.0714 8.20653C13.7119 8.96298 13.2554 9.83425 12.5948 10.5609L12.5669 10.5918C12.4889 10.6787 12.4005 10.777 12.3359 10.777C12.326 10.777 12.3152 10.7751 12.303 10.7711C12.1662 10.7159 12.0744 10.3726 12.0785 10.213C12.0786 10.2108 12.0786 10.2086 12.0786 10.2064L12.0768 7.1105C12.0768 7.09976 12.0761 7.08913 12.0747 7.07849C12.009 6.57522 11.8633 6.26195 11.3129 6.15026C11.2983 6.14724 11.2834 6.14575 11.2685 6.14575H8.5806C8.14268 6.14575 7.90138 6.33018 7.67456 6.60623C7.61334 6.68002 7.48589 6.83364 7.54906 7.01998C7.61315 7.20911 7.8212 7.24955 7.88894 7.26268C8.22522 7.32899 8.41477 7.54213 8.46846 7.91453C8.56219 8.56121 8.57371 9.25144 8.50471 10.0868C8.48547 10.3189 8.44742 10.4982 8.38471 10.6514C8.37015 10.6872 8.31849 10.8038 8.26582 10.8039C8.24908 10.8039 8.20067 10.7971 8.11248 10.7341C7.90397 10.5861 7.75142 10.3749 7.57357 10.114C6.96853 9.22796 6.46074 8.25191 6.02097 7.12938C5.85787 6.71615 5.55327 6.48481 5.16289 6.478C4.73395 6.47125 4.34504 6.46799 3.97413 6.46799C3.56886 6.46799 3.19314 6.47187 2.82625 6.47978C2.51217 6.48553 2.29492 6.58308 2.18061 6.76996C2.06611 6.95697 2.07356 7.20264 2.20276 7.50001C3.23702 9.88254 4.17478 11.6149 5.24345 13.1171C5.99225 14.1683 6.74333 14.8959 7.60686 15.4068C8.51664 15.9461 9.5362 16.2083 10.7237 16.2083C10.8583 16.2083 10.9975 16.2048 11.1379 16.198C11.8279 16.1632 12.0839 15.9044 12.1163 15.2082C12.1317 14.8525 12.1692 14.4793 12.338 14.1611C12.4445 13.9606 12.5439 13.9606 12.5765 13.9606C12.6394 13.9606 12.7174 13.9906 12.8011 14.0468C12.9513 14.1484 13.0801 14.2845 13.1857 14.4034C13.285 14.5163 13.3833 14.6304 13.4817 14.7446C13.6939 14.9909 13.9134 15.2456 14.1427 15.4871C14.6445 16.0162 15.1973 16.2488 15.8323 16.1983H18.2023C18.2073 16.1983 18.2124 16.1981 18.2175 16.1978C18.4536 16.1817 18.6582 16.0459 18.7786 15.8254C18.9279 15.5522 18.9249 15.2037 18.7706 14.893C18.5956 14.5415 18.3685 14.2413 18.1696 13.9941Z" fill="#7572D5"/>
</g>
<g id="linkedin">
  <path d="M5.80637 7.88635H2.53296V18.3626H5.80637V7.88635Z" fill="#7572D5"/>
  <path d="M4.10079 2.94019C2.89376 2.94019 2.10001 3.72082 2.10001 4.75729C2.10001 5.77408 2.86752 6.57439 4.05487 6.57439H4.08111C5.31437 6.57439 6.08189 5.76752 6.07533 4.75729C6.04909 3.72082 5.30781 2.94019 4.10079 2.94019Z" fill="#7572D5"/>
  <path d="M14.7476 7.78796C12.8714 7.78796 11.6972 8.81131 11.4807 9.53291V7.88636H7.8006C7.84652 8.75883 7.8006 18.3626 7.8006 18.3626H11.4807V12.7014C11.4807 12.3799 11.4676 12.065 11.5594 11.842C11.8087 11.2123 12.3532 10.5563 13.3306 10.5563C14.6098 10.5563 15.1871 11.5271 15.1871 12.9441V18.3626H18.9V12.5374C18.9 9.29675 17.0764 7.78796 14.7476 7.78796Z" fill="#7572D5"/>
</g>
<g id="=thestimony">
  <path d="M13.5417 20.8333C13.0771 20.8333 12.6312 20.9042 12.1875 20.9688C12.3312 20.4854 12.4792 19.9938 12.7167 19.5521C12.9542 18.9104 13.325 18.3542 13.6937 17.7938C14.0021 17.1875 14.5458 16.7771 14.9458 16.2583C15.3646 15.7542 15.9354 15.4188 16.3875 15C16.8312 14.5625 17.4125 14.3438 17.875 14.0354C18.3583 13.7583 18.7792 13.4521 19.2292 13.3063L20.3521 12.8438L21.3396 12.4333L20.3292 8.39584L19.0854 8.69584C18.6875 8.79584 18.2021 8.9125 17.65 9.05209C17.0854 9.15625 16.4833 9.44167 15.8125 9.70209C15.15 9.99792 14.3833 10.1979 13.6708 10.6729C12.9542 11.1271 12.1271 11.5063 11.3979 12.1146C10.6917 12.7417 9.83958 13.2854 9.21041 14.0833C8.52291 14.8292 7.84375 15.6125 7.31666 16.5042C6.70625 17.3542 6.29166 18.2875 5.85416 19.2104C5.45833 20.1333 5.13958 21.0771 4.87916 21.9938C4.38541 23.8313 4.16458 25.5771 4.07916 27.0708C4.00833 28.5667 4.05 29.8104 4.1375 30.7104C4.16875 31.1354 4.22708 31.5479 4.26875 31.8333L4.32083 32.1833L4.375 32.1708C4.74554 33.9017 5.59855 35.4924 6.83534 36.7587C8.07213 38.0251 9.64217 38.9154 11.3638 39.3267C13.0855 39.738 14.8884 39.6535 16.5641 39.083C18.2397 38.5124 19.7196 37.4792 20.8325 36.1027C21.9454 34.7262 22.6459 33.0628 22.853 31.3048C23.06 29.5468 22.7651 27.7662 22.0024 26.1688C21.2396 24.5714 20.0403 23.2226 18.543 22.2784C17.0458 21.3342 15.3118 20.8332 13.5417 20.8333ZM36.4583 20.8333C35.9937 20.8333 35.5479 20.9042 35.1042 20.9688C35.2479 20.4854 35.3958 19.9938 35.6333 19.5521C35.8708 18.9104 36.2417 18.3542 36.6104 17.7938C36.9188 17.1875 37.4625 16.7771 37.8625 16.2583C38.2812 15.7542 38.8521 15.4188 39.3042 15C39.7479 14.5625 40.3292 14.3438 40.7917 14.0354C41.275 13.7583 41.6958 13.4521 42.1458 13.3063L43.2687 12.8438L44.2562 12.4333L43.2458 8.39584L42.0021 8.69584C41.6042 8.79584 41.1187 8.9125 40.5667 9.05209C40.0021 9.15625 39.4 9.44167 38.7292 9.70209C38.0688 10 37.3 10.1979 36.5875 10.675C35.8708 11.1292 35.0438 11.5083 34.3146 12.1167C33.6083 12.7438 32.7562 13.2875 32.1271 14.0833C31.4396 14.8292 30.7604 15.6125 30.2333 16.5042C29.6229 17.3542 29.2083 18.2875 28.7708 19.2104C28.375 20.1333 28.0562 21.0771 27.7958 21.9938C27.3021 23.8313 27.0812 25.5771 26.9958 27.0708C26.925 28.5667 26.9667 29.8104 27.0542 30.7104C27.0854 31.1354 27.1437 31.5479 27.1854 31.8333L27.2375 32.1833L27.2917 32.1708C27.6622 33.9017 28.5152 35.4924 29.752 36.7587C30.9888 38.0251 32.5588 38.9154 34.2805 39.3267C36.0022 39.738 37.8051 39.6535 39.4807 39.083C41.1564 38.5124 42.6363 37.4792 43.7492 36.1027C44.8621 34.7262 45.5626 33.0628 45.7696 31.3048C45.9766 29.5468 45.6817 27.7662 44.919 26.1688C44.1563 24.5714 42.957 23.2226 41.4597 22.2784C39.9624 21.3342 38.2284 20.8332 36.4583 20.8333Z" fill="#7572D5"/>
</g>
</svg>